<?xml version="1.0" encoding="UTF-8"?>
<svg id="_Слой_1" data-name="Слой 1" xmlns="http://www.w3.org/2000/svg" viewBox="0 0 13.88 14">
  <defs>
    <style>
      .cls-1 {
        fill: gold;
        stroke-width: 0px;
      }
    </style>
  </defs>
  <g id="ic_star" data-name="ic star">
    <path class="cls-1" d="M6.94,0c-.13,0-.25.04-.35.11-.1.07-.18.18-.21.3l-1.36,4.45H.53c-.11.01-.22.05-.3.12-.09.07-.15.16-.19.26-.04.1-.04.22-.02.33.02.11.08.21.16.29l3.66,2.87-1.38,4.52c-.03.09-.03.18-.02.27.02.09.05.17.11.25.05.07.13.13.21.17.08.04.17.06.26.06.13,0,.25-.05.35-.12l3.58-2.76,3.58,2.75c.1.08.22.13.35.13.09,0,.18-.02.26-.06.08-.04.15-.1.21-.18.05-.07.09-.16.11-.25.02-.09.01-.18-.02-.27l-1.38-4.51,3.66-2.82c.08-.08.13-.18.16-.29.02-.11.02-.22-.02-.33-.04-.1-.1-.2-.19-.26-.09-.07-.19-.11-.3-.12h-4.49L7.5.41c-.04-.12-.11-.22-.21-.3C7.19.04,7.06,0,6.94,0h0ZM6.94,3.71l.49,1.59.32,1.06h2.92l-1.54,1.18-.82.63.3,1,.54,1.76-1.3-1-.91-.7-.91.7-1.3,1,.54-1.76.3-1-.82-.63-1.54-1.18h2.92l.32-1.06.49-1.59h0Z"/>
  </g>
</svg>