<?xml version="1.0" encoding="utf-8"?>
<svg width="33" height="23.562" viewBox="0 0 33 23.562" fill="none" stroke="none" version="1.1" xmlns:xlink="http://www.w3.org/1999/xlink" xmlns="http://www.w3.org/2000/svg">
  <path id="Path" d="M31.7884 0.000491142C31.4826 0.00940418 31.1922 0.136978 30.9788 0.356205C30.9788 0.356205 10.6152 20.7193 10.6152 20.7193C10.6152 20.7193 2.02722 12.1316 2.02722 12.1316C1.73187 11.824 1.29329 11.7 0.880624 11.8076C0.467961 11.9152 0.145698 12.2375 0.0381184 12.6501C-0.0694618 13.0628 0.0544529 13.5013 0.362073 13.7967C0.362073 13.7967 9.7826 23.217 9.7826 23.217C10.2425 23.6766 10.9879 23.6766 11.4478 23.217C11.4478 23.217 32.644 2.02131 32.644 2.02131C32.9916 1.6827 33.096 1.16546 32.9068 0.718527C32.7176 0.271597 32.2735 -0.0134811 31.7884 0.000491142C31.7884 0.000491142 31.7884 0.000491142 31.7884 0.000491142Z" style="fill:#289310;fill-rule:evenodd;mix-blend-mode:normal;" />
</svg>