<?xml version="1.0" encoding="utf-8"?>
<svg width="133.119" height="68.5" viewBox="0 0 133.119 68.5" fill="none" stroke="none" version="1.1" xmlns:xlink="http://www.w3.org/1999/xlink" xmlns="http://www.w3.org/2000/svg">
  <defs>
    <linearGradient id="gradient_1" gradientUnits="userSpaceOnUse" x1="83.119" y1="8.5" x2="4.119" y2="58.5">
      <stop offset="0.201" stop-color="#E30E42" />
      <stop offset="0.84" stop-color="#E64B0E" />
    </linearGradient>
  </defs>
  <g id="Group">
    <g style="mix-blend-mode:normal;" transform="translate(28.119 27.5)">
      <path d="M0.434659 19.4631L0.434659 15.1406L1.23153 15.1406Q1.64205 14.7663 2.00728 14.0811Q2.37251 13.396 2.62908 12.2459Q2.88565 11.0959 2.97017 9.32102L3.2358 4.10511L10.5767 4.10511L10.5767 15.1406L12.0014 15.1406L12.0014 19.4389L10.5767 19.4389L10.5767 16.4688L1.85938 16.4688L1.85938 19.4631L0.434659 19.4631ZM3.01847 15.1406L9.15199 15.1406L9.15199 5.43324L4.58807 5.43324L4.39489 9.32102Q4.28622 11.3494 3.93306 12.8013Q3.5799 14.2532 3.01847 15.1406ZM14.2713 16.4688L14.2713 4.10511L18.5938 4.10511Q19.8857 4.10511 20.7248 4.54883Q21.5639 4.99254 21.9744 5.7381Q22.3849 6.48366 22.3849 7.3892Q22.3849 8.18608 22.1042 8.70526Q21.8235 9.22443 21.3677 9.52628Q20.9119 9.82813 20.3807 9.97301L20.3807 10.0938Q20.9482 10.13 21.5217 10.4922Q22.0952 10.8544 22.4815 11.5305Q22.8679 12.2067 22.8679 13.1847Q22.8679 14.1143 22.4453 14.8569Q22.0227 15.5994 21.1111 16.0341Q20.1996 16.4688 18.7386 16.4688L14.2713 16.4688ZM15.7685 15.1406L18.7386 15.1406Q20.2056 15.1406 20.8244 14.5701Q21.4432 13.9996 21.4432 13.1847Q21.4432 12.5568 21.1232 12.0225Q20.8033 11.4883 20.2116 11.1653Q19.62 10.8423 18.8111 10.8423L15.7685 10.8423L15.7685 15.1406ZM15.7685 9.53835L18.5455 9.53835Q19.5597 9.53835 20.2599 8.95277Q20.9602 8.36719 20.9602 7.3892Q20.9602 6.57422 20.3928 6.00373Q19.8253 5.43324 18.5938 5.43324L15.7685 5.43324L15.7685 9.53835ZM35.7628 10.2869Q35.7628 12.2429 35.0565 13.6676Q34.3501 15.0923 33.1186 15.8651Q31.8871 16.6378 30.3054 16.6378Q28.7237 16.6378 27.4922 15.8651Q26.2607 15.0923 25.5543 13.6676Q24.848 12.2429 24.848 10.2869Q24.848 8.33097 25.5543 6.90625Q26.2607 5.48153 27.4922 4.70881Q28.7237 3.93608 30.3054 3.93608Q31.8871 3.93608 33.1186 4.70881Q34.3501 5.48153 35.0565 6.90625Q35.7628 8.33097 35.7628 10.2869ZM34.3139 10.2869Q34.3139 8.68111 33.7797 7.57635Q33.2454 6.47159 32.3368 5.90412Q31.4283 5.33665 30.3054 5.33665Q29.1825 5.33665 28.274 5.90412Q27.3654 6.47159 26.8311 7.57635Q26.2969 8.68111 26.2969 10.2869Q26.2969 11.8928 26.8311 12.9975Q27.3654 14.1023 28.274 14.6697Q29.1825 15.2372 30.3054 15.2372Q31.4283 15.2372 32.3368 14.6697Q33.2454 14.1023 33.7797 12.9975Q34.3139 11.8928 34.3139 10.2869ZM38.2741 16.4688L38.2741 4.10511L42.4517 4.10511Q43.9066 4.10511 44.8333 4.62731Q45.7599 5.1495 46.2067 6.03693Q46.6534 6.92436 46.6534 8.01705Q46.6534 9.10973 46.2097 10.0032Q45.766 10.8967 44.8423 11.4249Q43.9187 11.9531 42.4758 11.9531L39.7713 11.9531L39.7713 16.4688L38.2741 16.4688ZM39.7713 10.625L42.4276 10.625Q43.9187 10.625 44.5495 9.87642Q45.1804 9.12784 45.1804 8.01705Q45.1804 6.90021 44.5465 6.16673Q43.9126 5.43324 42.4034 5.43324L39.7713 5.43324L39.7713 10.625ZM49.0682 16.4688L49.0682 4.10511L56.5298 4.10511L56.5298 5.43324L50.5653 5.43324L50.5653 9.6108L56.1435 9.6108L56.1435 10.9389L50.5653 10.9389L50.5653 15.1406L56.6264 15.1406L56.6264 16.4688L49.0682 16.4688ZM69.7386 15.044L69.5696 19.3906L68.0241 19.3906L68.0241 16.4688L59.2344 16.4688L59.2344 4.10511L60.6591 4.10511L60.6591 15.0923L67.0341 15.0923L67.0341 4.10511L68.4588 4.10511L68.4588 15.044L69.7386 15.044Z" transform="translate(34.483 0)" style="fill:#FFFFFF;" />
      <path d="M1.49716 4.10511L3.28409 4.10511L7.4858 14.3679L7.63068 14.3679L11.8324 4.10511L13.6193 4.10511L13.6193 16.4688L12.2188 16.4688L12.2188 7.07528L12.098 7.07528L8.23438 16.4688L6.8821 16.4688L3.01847 7.07528L2.89773 7.07528L2.89773 16.4688L1.49716 16.4688L1.49716 4.10511ZM27.0455 10.2869Q27.0455 12.2429 26.3391 13.6676Q25.6328 15.0923 24.4013 15.8651Q23.1697 16.6378 21.5881 16.6378Q20.0064 16.6378 18.7749 15.8651Q17.5433 15.0923 16.837 13.6676Q16.1307 12.2429 16.1307 10.2869Q16.1307 8.33097 16.837 6.90625Q17.5433 5.48153 18.7749 4.70881Q20.0064 3.93608 21.5881 3.93608Q23.1697 3.93608 24.4013 4.70881Q25.6328 5.48153 26.3391 6.90625Q27.0455 8.33097 27.0455 10.2869ZM25.5966 10.2869Q25.5966 8.68111 25.0623 7.57635Q24.5281 6.47159 23.6195 5.90412Q22.7109 5.33665 21.5881 5.33665Q20.4652 5.33665 19.5566 5.90412Q18.6481 6.47159 18.1138 7.57635Q17.5795 8.68111 17.5795 10.2869Q17.5795 11.8928 18.1138 12.9975Q18.6481 14.1023 19.5566 14.6697Q20.4652 15.2372 21.5881 15.2372Q22.7109 15.2372 23.6195 14.6697Q24.5281 14.1023 25.0623 12.9975Q25.5966 11.8928 25.5966 10.2869ZM28.4943 16.4688L28.4943 15.0923L28.8565 15.0923Q29.6293 15.0923 30.0579 14.5973Q30.4865 14.1023 30.6767 12.9975Q30.8668 11.8928 30.9332 10.0696L31.1506 4.10511L38.6847 4.10511L38.6847 16.4688L37.1875 16.4688L37.1875 5.43324L32.5753 5.43324L32.3821 10.3594Q32.3097 12.3033 32.0259 13.6676Q31.7422 15.032 31.0298 15.7504Q30.3175 16.4688 28.9531 16.4688L28.4943 16.4688ZM52.1108 10.2869Q52.1108 12.2429 51.4045 13.6676Q50.6982 15.0923 49.4666 15.8651Q48.2351 16.6378 46.6534 16.6378Q45.0717 16.6378 43.8402 15.8651Q42.6087 15.0923 41.9023 13.6676Q41.196 12.2429 41.196 10.2869Q41.196 8.33097 41.9023 6.90625Q42.6087 5.48153 43.8402 4.70881Q45.0717 3.93608 46.6534 3.93608Q48.2351 3.93608 49.4666 4.70881Q50.6982 5.48153 51.4045 6.90625Q52.1108 8.33097 52.1108 10.2869ZM50.6619 10.2869Q50.6619 8.68111 50.1277 7.57635Q49.5934 6.47159 48.6848 5.90412Q47.7763 5.33665 46.6534 5.33665Q45.5305 5.33665 44.622 5.90412Q43.7134 6.47159 43.1792 7.57635Q42.6449 8.68111 42.6449 10.2869Q42.6449 11.8928 43.1792 12.9975Q43.7134 14.1023 44.622 14.6697Q45.5305 15.2372 46.6534 15.2372Q47.7763 15.2372 48.6848 14.6697Q49.5934 14.1023 50.1277 12.9975Q50.6619 11.8928 50.6619 10.2869ZM53.5597 19.4631L53.5597 15.1406L54.3565 15.1406Q54.767 14.7663 55.1323 14.0811Q55.4975 13.396 55.7541 12.2459Q56.0107 11.0959 56.0952 9.32102L56.3608 4.10511L63.7017 4.10511L63.7017 15.1406L65.1264 15.1406L65.1264 19.4389L63.7017 19.4389L63.7017 16.4688L54.9844 16.4688L54.9844 19.4631L53.5597 19.4631ZM56.1435 15.1406L62.277 15.1406L62.277 5.43324L57.7131 5.43324L57.5199 9.32102Q57.4112 11.3494 57.0581 12.8013Q56.7049 14.2532 56.1435 15.1406ZM67.3963 16.4688L67.3963 4.10511L74.8579 4.10511L74.8579 5.43324L68.8935 5.43324L68.8935 9.6108L74.4716 9.6108L74.4716 10.9389L68.8935 10.9389L68.8935 15.1406L74.9545 15.1406L74.9545 16.4688L67.3963 16.4688ZM69.3764 2.55966Q68.9961 2.55966 68.7033 2.26687Q68.4105 1.97408 68.4105 1.59375Q68.4105 1.1772 68.7033 0.90252Q68.9961 0.627842 69.3764 0.627841Q69.793 0.627842 70.0676 0.90252Q70.3423 1.1772 70.3423 1.59375Q70.3423 1.97408 70.0676 2.26687Q69.793 2.55966 69.3764 2.55966ZM72.8537 2.55966Q72.4734 2.55966 72.1806 2.26687Q71.8878 1.97408 71.8878 1.59375Q71.8878 1.1772 72.1806 0.90252Q72.4734 0.627842 72.8537 0.627841Q73.2702 0.627842 73.5449 0.90252Q73.8196 1.1772 73.8196 1.59375Q73.8196 1.97408 73.5449 2.26687Q73.2702 2.55966 72.8537 2.55966ZM84.8792 4.10511L84.8792 9.58665L86.4006 9.58665L89.6122 4.10511L91.4233 4.10511L87.7287 10.0455L91.7372 16.4688L90.0227 16.4688L86.6662 10.9872L84.8792 10.9872L84.8792 16.4688L83.3821 16.4688L83.3821 10.9872L81.5952 10.9872L78.2145 16.4688L76.5241 16.4688L80.5327 10.0213L76.8622 4.10511L78.6733 4.10511L81.8849 9.58665L83.3821 9.58665L83.3821 4.10511L84.8792 4.10511ZM93.6932 4.10511L95.1662 4.10511L95.1662 13.8366L95.2869 13.8366L102.048 4.10511L103.497 4.10511L103.497 16.4688L102 16.4688L102 6.76136L101.879 6.76136L95.142 16.4688L93.6932 16.4688L93.6932 4.10511Z" transform="translate(0 20.574)" style="fill:#FFFFFF;" />
    </g>
    <path id="Path" d="M1.90735e-06 57.1838L8.61871 57.1838L8.61871 50L17.6187 50L17.6187 33L38.1187 46L82.6187 12.5L82.6187 0L38.1187 31.5L8.61871 12.5L8.61871 49L0 49L1.90735e-06 57.1838Z" style="fill:url(#gradient_1);fill-rule:evenodd;mix-blend-mode:normal;" />
  </g>
</svg>